<svg xmlns="http://www.w3.org/2000/svg" xmlns:xlink="http://www.w3.org/1999/xlink" width="292" height="171" viewBox="0 0 292 171">
  <defs>
    <clipPath id="clip-path">
      <path id="Rectángulo_454726" data-name="Rectángulo 454726" d="M0,0H276a16,16,0,0,1,16,16V155a16,16,0,0,1-16,16H0a0,0,0,0,1,0,0V0A0,0,0,0,1,0,0Z" transform="translate(1120.63 443)" fill="#edf3fc"/>
    </clipPath>
    <clipPath id="clip-path-2">
      <path id="Trazado_1039393" data-name="Trazado 1039393" d="M626.792,168.376c-.046-13.679-59.242-9.034-67.747-8.278-88.54,7.863-86.55,151.212-176.66,151.213-63.175,0-131.764-11.59-153.424,56.014s28.88,83.056,32.49,139.07-37.682,57.946-68.478,65.672-48.737,36.7-48.737,133.276H626.792V168.376" fill="none"/>
    </clipPath>
    <clipPath id="clip-path-3">
      <rect id="Rectángulo_454719" data-name="Rectángulo 454719" width="924.046" height="986.366" fill="none"/>
    </clipPath>
    <clipPath id="clip-path-4">
      <path id="Trazado_1039396" data-name="Trazado 1039396" d="M646.072,233.017c-21.8,7.039-39.091,25.124-52.043,45.161-13.021,20.142-23.322,43.629-42.546,56.917-16.434,11.36-37.1,13.515-54.19,23.713-30.026,17.921-43.377,62.128-28.831,95.464,13.1,30.018,43.777,48.125,56.2,78.472,18.1,44.219-8.674,96.32,1.951,143.237,7.047,31.122,115.459,18.109,115.459,18.109l281.219-6.522L926.5,303.193s-35.218-47.226-118.142-27.385-71.509-10.891-89.594-30.641c-11.122-12.146-27.812-16.61-44.084-16.61a95.018,95.018,0,0,0-28.607,4.46" fill="none"/>
    </clipPath>
    <linearGradient id="linear-gradient" x1="-0.706" y1="1.413" x2="-0.704" y2="1.413" gradientUnits="objectBoundingBox">
      <stop offset="0" stop-color="#ffd101"/>
      <stop offset="1" stop-color="#fa7921"/>
    </linearGradient>
    <clipPath id="clip-path-5">
      <rect id="Rectángulo_454727" data-name="Rectángulo 454727" width="100.072" height="115.5" fill="none"/>
    </clipPath>
  </defs>
  <g id="Grupo_1206663" data-name="Grupo 1206663" transform="translate(-1120.63 -443)">
    <g id="Enmascarar_grupo_1119123" data-name="Enmascarar grupo 1119123" clip-path="url(#clip-path)">
      <g id="Grupo_1177156" data-name="Grupo 1177156" transform="translate(976.208 -30.482)">
        <g id="Grupo_1177155" data-name="Grupo 1177155" clip-path="url(#clip-path-2)">
          <g id="Grupo_1177154" data-name="Grupo 1177154" opacity="0.7" style="mix-blend-mode: overlay;isolation: isolate">
            <g id="Grupo_1177153" data-name="Grupo 1177153">
              <g id="Grupo_1177152" data-name="Grupo 1177152" clip-path="url(#clip-path-3)">
                <path id="Trazado_1039362" data-name="Trazado 1039362" d="M915.513,407.3l8.533-9.017L556.509,0l-8.533,9.017Z" fill="#fff"/>
                <path id="Trazado_1039363" data-name="Trazado 1039363" d="M897.247,426.6l8.533-9.018L538.243,19.3l-8.533,9.017Z" fill="#fff"/>
                <path id="Trazado_1039364" data-name="Trazado 1039364" d="M878.981,445.9l8.533-9.017L519.977,38.6l-8.533,9.017Z" fill="#fff"/>
                <path id="Trazado_1039365" data-name="Trazado 1039365" d="M860.716,465.207l8.533-9.018L501.712,57.907l-8.533,9.017Z" fill="#fff"/>
                <path id="Trazado_1039366" data-name="Trazado 1039366" d="M842.45,484.509l8.533-9.018L483.446,77.209l-8.533,9.017Z" fill="#fff"/>
                <path id="Trazado_1039367" data-name="Trazado 1039367" d="M824.184,503.811l8.533-9.017L465.18,96.511l-8.533,9.017Z" fill="#fff"/>
                <path id="Trazado_1039368" data-name="Trazado 1039368" d="M805.918,523.113l8.533-9.017L446.914,115.813l-8.533,9.017Z" fill="#fff"/>
                <path id="Trazado_1039369" data-name="Trazado 1039369" d="M787.652,542.415l8.533-9.017L428.648,135.115l-8.533,9.017Z" fill="#fff"/>
                <path id="Trazado_1039370" data-name="Trazado 1039370" d="M769.386,561.718l8.533-9.018L410.382,154.418l-8.533,9.017Z" fill="#fff"/>
                <path id="Trazado_1039371" data-name="Trazado 1039371" d="M751.12,581.02,759.653,572,392.116,173.72l-8.533,9.017Z" fill="#fff"/>
                <path id="Trazado_1039372" data-name="Trazado 1039372" d="M732.854,600.322l8.533-9.018L373.85,193.022l-8.533,9.017Z" fill="#fff"/>
                <path id="Trazado_1039373" data-name="Trazado 1039373" d="M714.589,619.624l8.533-9.018L355.585,212.324l-8.533,9.017Z" fill="#fff"/>
                <path id="Trazado_1039374" data-name="Trazado 1039374" d="M696.323,638.927l8.533-9.017L337.319,231.627l-8.533,9.017Z" fill="#fff"/>
                <path id="Trazado_1039375" data-name="Trazado 1039375" d="M678.057,658.229l8.533-9.018L319.053,250.929l-8.533,9.017Z" fill="#fff"/>
                <path id="Trazado_1039376" data-name="Trazado 1039376" d="M659.791,677.531l8.533-9.017L300.787,270.231l-8.533,9.017Z" fill="#fff"/>
                <path id="Trazado_1039377" data-name="Trazado 1039377" d="M641.525,696.833l8.533-9.018L282.521,289.533l-8.533,9.017Z" fill="#fff"/>
                <path id="Trazado_1039378" data-name="Trazado 1039378" d="M623.259,716.135l8.533-9.017L264.255,308.835l-8.533,9.017Z" fill="#fff"/>
                <path id="Trazado_1039379" data-name="Trazado 1039379" d="M604.993,735.438l8.533-9.018L245.989,328.138l-8.533,9.017Z" fill="#fff"/>
                <path id="Trazado_1039380" data-name="Trazado 1039380" d="M586.727,754.74l8.533-9.017L227.723,347.44l-8.533,9.017Z" fill="#fff"/>
                <path id="Trazado_1039381" data-name="Trazado 1039381" d="M568.462,774.042l8.533-9.018L209.458,366.742l-8.533,9.017Z" fill="#fff"/>
                <path id="Trazado_1039382" data-name="Trazado 1039382" d="M550.2,793.344l8.533-9.018L191.192,386.044l-8.533,9.017Z" fill="#fff"/>
                <path id="Trazado_1039383" data-name="Trazado 1039383" d="M531.93,812.646l8.533-9.017L172.926,405.346l-8.533,9.017Z" fill="#fff"/>
                <path id="Trazado_1039384" data-name="Trazado 1039384" d="M513.664,831.949l8.533-9.018L154.66,424.649l-8.533,9.017Z" fill="#fff"/>
                <path id="Trazado_1039385" data-name="Trazado 1039385" d="M495.4,851.251l8.533-9.017L136.394,443.951l-8.533,9.017Z" fill="#fff"/>
                <path id="Trazado_1039386" data-name="Trazado 1039386" d="M477.132,870.553l8.533-9.018L118.128,463.253,109.6,472.27Z" fill="#fff"/>
                <path id="Trazado_1039387" data-name="Trazado 1039387" d="M458.866,889.855l8.533-9.017L99.862,482.555l-8.533,9.017Z" fill="#fff"/>
                <path id="Trazado_1039388" data-name="Trazado 1039388" d="M440.6,909.157l8.533-9.018L81.6,501.857l-8.533,9.017Z" fill="#fff"/>
                <path id="Trazado_1039389" data-name="Trazado 1039389" d="M422.335,928.46l8.533-9.018L63.331,521.16,54.8,530.177Z" fill="#fff"/>
                <path id="Trazado_1039390" data-name="Trazado 1039390" d="M404.069,947.762l8.533-9.017L45.065,540.462l-8.533,9.017Z" fill="#fff"/>
                <path id="Trazado_1039391" data-name="Trazado 1039391" d="M385.8,967.064l8.533-9.018L26.8,559.764l-8.533,9.017Z" fill="#fff"/>
                <path id="Trazado_1039392" data-name="Trazado 1039392" d="M367.537,986.366l8.533-9.017L8.533,579.066,0,588.083Z" fill="#fff"/>
              </g>
            </g>
          </g>
        </g>
      </g>
      <g id="Grupo_1177161" data-name="Grupo 1177161" transform="translate(708.402 190.443)" opacity="0.05">
        <g id="Grupo_1177160" data-name="Grupo 1177160" clip-path="url(#clip-path-4)">
          <rect id="Rectángulo_454721" data-name="Rectángulo 454721" width="572.261" height="567.786" transform="translate(349.425 683.082) rotate(-77.053)" fill="url(#linear-gradient)"/>
        </g>
      </g>
    </g>
    <g id="Grupo_1177175" data-name="Grupo 1177175" transform="translate(1208.929 471.5)">
      <g id="Grupo_1177174" data-name="Grupo 1177174" clip-path="url(#clip-path-5)">
        <path id="Trazado_1039402" data-name="Trazado 1039402" d="M42.272,6.184a5.353,5.353,0,0,1-.614,2.432L39.2,13.073l-9-4.661,2.456-4.458a5.091,5.091,0,0,1,6.958-2.026,4.509,4.509,0,0,1,2.661,4.255" transform="translate(30.992 1.314)" fill="#fff"/>
        <path id="Trazado_1039403" data-name="Trazado 1039403" d="M14,14.482A6.344,6.344,0,1,1,7.657,8.2,6.345,6.345,0,0,1,14,14.482" transform="translate(1.348 8.416)" fill="#d3e2f6"/>
        <path id="Trazado_1039404" data-name="Trazado 1039404" d="M13.918,8.2a6.282,6.282,0,1,1-6.344,6.282A6.345,6.345,0,0,1,13.918,8.2" transform="translate(7.773 8.416)" fill="#d3e2f6"/>
        <path id="Trazado_1039405" data-name="Trazado 1039405" d="M10.786,14.5a6.282,6.282,0,1,1-6.342,6.282A6.345,6.345,0,0,1,10.786,14.5" transform="translate(4.561 14.882)" fill="#d3e2f6"/>
        <path id="Trazado_1039406" data-name="Trazado 1039406" d="M46.81,30.16a7.7,7.7,0,0,1-3.891,14.387,6.779,6.779,0,0,1-3.477-.811,3.663,3.663,0,0,1-1.435-1.013l-.409-.405a11.151,11.151,0,0,1-1.433-1.824.707.707,0,0,0-.2-.405c-.207-.608-.409-1.418-.616-2.026V35.428c0-.2.207-.405.207-.811v-.2c.2-.405.2-.608.409-1.013l.2-.2.207-.2.2-.2a7.869,7.869,0,0,1,1.842-1.824l.207-.2a1.544,1.544,0,0,1,.819-.405.2.2,0,0,0,.2-.2c.2,0,.411-.2.614-.2h3.07a3.934,3.934,0,0,1,3.481.2" transform="translate(36.277 30.427)" fill="#d3e2f6"/>
        <path id="Trazado_1039407" data-name="Trazado 1039407" d="M94.615,50.7V60.832H2.525V50.7h92.09Z" transform="translate(2.591 52.034)" fill="#d3e2f6"/>
        <path id="Trazado_1039408" data-name="Trazado 1039408" d="M75.4,56.574V58.4H8.887V56.574A13.427,13.427,0,0,1,22.392,43.2h39.5A13.428,13.428,0,0,1,75.4,56.574" transform="translate(9.121 44.337)" fill="#d3e2f6"/>
        <path id="Trazado_1039409" data-name="Trazado 1039409" d="M80.55,25.668,73.387,39.042l-4.5,8.511a6.737,6.737,0,0,0-2.661-.811h-3.07c-.2,0-.409.2-.614.2s-.2,0-.2.2c-.2.2-.614.2-.819.405l-.2.2a4,4,0,0,0-1.842,1.824l-.2.2-.2.2-.2.2c-.2.405-.409.608-.409,1.013v.2c0,.2-.2.405-.2.811v2.432a5.9,5.9,0,0,0,.614,2.026.705.705,0,0,0,.2.405A11.151,11.151,0,0,0,60.5,58.9l.409.405a6.219,6.219,0,0,0,1.433,1.013L56.607,70.45,54.356,74.5H31.641L17.929,67.208a7.593,7.593,0,0,1-4.093-6.687,7.882,7.882,0,0,1,.819-3.647,7.981,7.981,0,0,1,10.438-3.242l13.917,7.295c2.249,1.216,6.138-1.824,7.366-4.053L57.631,36a4.342,4.342,0,0,0-1.842-6.079l-7.163-3.85L55.789,12.7l11.254,5.876Z" transform="translate(14.2 13.034)" fill="#fff"/>
        <path id="Trazado_1039410" data-name="Trazado 1039410" d="M21.945,30.348,36.474,3.6l4.5,2.229,9,4.863,4.5,2.432L49.776,22.04,42.409,35.413,37.7,44.329l-6.956,2.229-9-4.863-2.047-6.889Z" transform="translate(20.212 3.695)" fill="#fff"/>
        <path id="Trazado_1039411" data-name="Trazado 1039411" d="M12.134,31.032a9.04,9.04,0,0,1-9-8.916,9,9,0,0,1,18.008,0,9.04,9.04,0,0,1-9,8.916m0-12.766a3.85,3.85,0,1,0,3.889,3.85,3.865,3.865,0,0,0-3.889-3.85" transform="translate(3.213 13.547)" fill="#4e8ae1"/>
        <path id="Trazado_1039412" data-name="Trazado 1039412" d="M32.057,50.288a2.619,2.619,0,0,1-1.228-.2l-9-4.661A2.732,2.732,0,0,1,20.6,44.007l-2.047-6.889a2.377,2.377,0,0,1,.2-2.026L35.536,3.683a2.744,2.744,0,0,1,1.433-1.216,2.443,2.443,0,0,1,2.047.2l4.5,2.432a2.584,2.584,0,0,1,1.025,3.445A2.64,2.64,0,0,1,41.059,9.56L38.81,8.344,23.666,36.51,25.1,41.373l7.163,3.85L37.173,43.8l4.3-8.105a2.634,2.634,0,0,1,3.477-1.013,2.586,2.586,0,0,1,1.025,3.445l-4.709,8.916a2.729,2.729,0,0,1-1.433,1.216l-6.956,2.026Z" transform="translate(18.899 2.396)" fill="#4e8ae1"/>
        <path id="Trazado_1039413" data-name="Trazado 1039413" d="M35.823,22.149a2.619,2.619,0,0,1-1.228-.2A2.583,2.583,0,0,1,33.572,18.5l3.684-6.687L34.8,10.6a2.585,2.585,0,0,1-1.023-3.445,2.637,2.637,0,0,1,3.479-1.013l4.5,2.432a2.732,2.732,0,0,1,1.228,1.418,2.377,2.377,0,0,1-.2,2.026l-4.707,8.916a2.836,2.836,0,0,1-2.251,1.216" transform="translate(34.166 6.016)" fill="#4e8ae1"/>
        <path id="Trazado_1039414" data-name="Trazado 1039414" d="M33.445,26.478a2.623,2.623,0,0,1-1.23-.2L20.959,20.4a2.585,2.585,0,0,1-1.021-3.445,2.634,2.634,0,0,1,3.477-1.013l11.256,5.876a2.58,2.58,0,0,1,1.023,3.445,2.832,2.832,0,0,1-2.249,1.216" transform="translate(20.173 16.074)" fill="#4e8ae1"/>
        <path id="Trazado_1039415" data-name="Trazado 1039415" d="M40.514,16.818a2.619,2.619,0,0,1-1.228-.2l-9-4.661a2.732,2.732,0,0,1-1.228-1.418,2.377,2.377,0,0,1,.2-2.026l2.456-4.458A7.856,7.856,0,0,1,38.467,0a12.053,12.053,0,0,1,3.684.811A7.758,7.758,0,0,1,46.244,7.5a11.681,11.681,0,0,1-.821,3.647L42.968,15.6a3.2,3.2,0,0,1-2.454,1.216M34.988,8.511l4.5,2.432,1.228-2.229a2.547,2.547,0,0,0,.2-1.216,2.494,2.494,0,0,0-1.433-2.229,2.619,2.619,0,0,0-1.228-.2,2.518,2.518,0,0,0-2.251,1.418Z" transform="translate(29.68)" fill="#4e8ae1"/>
        <path id="Trazado_1039416" data-name="Trazado 1039416" d="M48.556,44.318a2.619,2.619,0,0,1-1.228-.2L15.608,27.5a2.583,2.583,0,0,1-1.023-3.445,2.637,2.637,0,0,1,3.479-1.013l31.72,16.616A2.583,2.583,0,0,1,50.807,43.1a2.356,2.356,0,0,1-2.251,1.216" transform="translate(14.679 23.361)" fill="#4e8ae1"/>
        <path id="Trazado_1039417" data-name="Trazado 1039417" d="M95.963,64.8H3.873a2.7,2.7,0,0,1-2.661-2.634V52.034A2.7,2.7,0,0,1,3.873,49.4H16.766a2.634,2.634,0,1,1,0,5.268H6.533v5.066H93.507V54.668H83.276a2.634,2.634,0,1,1,0-5.268H96.167a2.7,2.7,0,0,1,2.661,2.634V62.166A3.044,3.044,0,0,1,95.963,64.8" transform="translate(1.244 50.7)" fill="#4e8ae1"/>
        <path id="Trazado_1039418" data-name="Trazado 1039418" d="M76.744,62.263H10.235a2.7,2.7,0,0,1-2.661-2.634V57.805A15.905,15.905,0,0,1,23.537,42H37.861a2.669,2.669,0,0,1,2.661,2.432,2.7,2.7,0,0,1-2.661,2.634H23.537A10.758,10.758,0,0,0,12.69,57.2H74.084A10.9,10.9,0,0,0,63.237,47.066H60.986a2.7,2.7,0,0,1-2.659-2.634A2.527,2.527,0,0,1,60.986,42h2.251A15.905,15.905,0,0,1,79.2,57.805v1.824a2.665,2.665,0,0,1-2.456,2.634" transform="translate(7.773 43.105)" fill="#4e8ae1"/>
        <path id="Trazado_1039419" data-name="Trazado 1039419" d="M41.157,33.176h-.819a2.44,2.44,0,1,1,.409-4.863h.614a2.527,2.527,0,0,1,2.251,2.837c0,1.216-1.023,2.026-2.456,2.026" transform="translate(39.063 29.032)" fill="#4e8ae1"/>
        <path id="Trazado_1039420" data-name="Trazado 1039420" d="M40.137,33.163a2.448,2.448,0,0,1-2.456-2.229A2.366,2.366,0,0,1,39.933,28.3h.409A2.523,2.523,0,0,1,42.8,30.934a2.353,2.353,0,0,1-2.456,2.432.2.2,0,0,0-.2-.2" transform="translate(38.65 29.045)" fill="#4e8ae1"/>
        <path id="Trazado_1039421" data-name="Trazado 1039421" d="M39.837,33.277a2.432,2.432,0,0,1-2.456-2.229,2.527,2.527,0,0,1,2.047-2.837h.614a2.7,2.7,0,0,1,2.865,2.229,2.527,2.527,0,0,1-2.251,2.837h-.819Z" transform="translate(38.338 28.931)" fill="#4e8ae1"/>
        <path id="Trazado_1039422" data-name="Trazado 1039422" d="M39.472,33.276a2.864,2.864,0,0,1-2.456-1.824,2.322,2.322,0,0,1,1.842-3.039h1.023a2.552,2.552,0,1,1,.614,5.066h-.614c0-.2-.2-.2-.409-.2" transform="translate(37.882 29.134)" fill="#4e8ae1"/>
        <path id="Trazado_1039423" data-name="Trazado 1039423" d="M37.34,36.253a2.98,2.98,0,0,1-1.433-.405,2.373,2.373,0,0,1-.614-3.445,7.02,7.02,0,0,1,2.456-2.432c.2,0,.2-.2.409-.2l1.228-.608a.2.2,0,0,0,.2-.2,1.24,1.24,0,0,1,.819-.2c.2,0,.2,0,.409-.2a2.425,2.425,0,0,1,3.07,1.824,2.4,2.4,0,0,1-1.842,3.039h-.2c-.2,0-.2,0-.409.2h-.2c-.2.2-.409.2-.614.405a.2.2,0,0,0-.2.2l-1.228,1.216a2.256,2.256,0,0,1-1.842.811" transform="translate(35.718 29.197)" fill="#4e8ae1"/>
        <path id="Trazado_1039424" data-name="Trazado 1039424" d="M37.31,35.109a3.823,3.823,0,0,1-1.433-.405,2.4,2.4,0,0,1-.819-3.445c0-.2.2-.2.2-.405a2.426,2.426,0,0,1,3.479-.608,2.373,2.373,0,0,1,.614,3.445v.2a2.254,2.254,0,0,1-2.047,1.216" transform="translate(35.544 30.543)" fill="#4e8ae1"/>
        <path id="Trazado_1039425" data-name="Trazado 1039425" d="M37.034,35.537a2.619,2.619,0,0,1-1.228-.2,2.583,2.583,0,0,1-1.023-3.445c0-.2.2-.2.2-.405s.2-.2.2-.405a2.672,2.672,0,0,1,3.479-.811,2.613,2.613,0,0,1,.819,3.445v.2a.2.2,0,0,1-.2.2,2.214,2.214,0,0,1-2.251,1.418" transform="translate(35.409 30.724)" fill="#4e8ae1"/>
        <path id="Trazado_1039426" data-name="Trazado 1039426" d="M36.605,37.389h-.2a2.527,2.527,0,0,1-2.251-2.837v-.811c0-.405.2-.608.2-1.013,0-.2,0-.405.2-.405A2.571,2.571,0,0,1,37.833,30.9a2.529,2.529,0,0,1,1.433,3.242c0,.2,0,.2-.2.405v.405a2.247,2.247,0,0,1-2.456,2.432" transform="translate(35.021 31.506)" fill="#4e8ae1"/>
        <path id="Trazado_1039427" data-name="Trazado 1039427" d="M36.7,36.884h0a2.7,2.7,0,0,1-2.661-2.634v-.608A2.5,2.5,0,0,1,36.9,31.616a2.383,2.383,0,0,1,2.047,2.837A2.1,2.1,0,0,1,36.7,36.884" transform="translate(34.931 32.416)" fill="#4e8ae1"/>
        <path id="Trazado_1039428" data-name="Trazado 1039428" d="M36.7,37.274a2.7,2.7,0,0,1-2.661-2.634v-.608a2.56,2.56,0,0,1,5.116.2v.2A2.382,2.382,0,0,1,36.7,37.274" transform="translate(34.931 32.432)" fill="#4e8ae1"/>
        <path id="Trazado_1039429" data-name="Trazado 1039429" d="M36.592,37.771a2.606,2.606,0,0,1-2.456-2.229v-.608a2.56,2.56,0,0,1,5.116-.2v.2A2.527,2.527,0,0,1,37,37.771Z" transform="translate(35.034 33.15)" fill="#4e8ae1"/>
        <path id="Trazado_1039430" data-name="Trazado 1039430" d="M37.117,39.092a2.391,2.391,0,0,1-2.251-1.418.74.74,0,0,1-.2-.608,2.662,2.662,0,0,1,1.228-3.445,2.714,2.714,0,0,1,3.479,1.216c0,.2.2.2.2.405a2.583,2.583,0,0,1-1.023,3.445,2.223,2.223,0,0,1-1.433.405" transform="translate(35.326 34.261)" fill="#4e8ae1"/>
        <path id="Trazado_1039431" data-name="Trazado 1039431" d="M38.19,40.045a2.337,2.337,0,0,1-1.637-.608c-.2-.2-.409-.2-.614-.405a2.55,2.55,0,0,1,0-3.647,2.612,2.612,0,0,1,3.684,0l.2.2a2.535,2.535,0,0,1,.2,3.647,2,2,0,0,1-1.842.811" transform="translate(36.097 35.536)" fill="#4e8ae1"/>
        <path id="Trazado_1039432" data-name="Trazado 1039432" d="M55.908,78.538H32.989a2.619,2.619,0,0,1-1.228-.2L18.049,71.041a10.5,10.5,0,0,1-5.526-8.916,9.321,9.321,0,0,1,1.23-4.661A10.425,10.425,0,0,1,27.668,53.21L41.584,60.5c.817,0,3.272-1.621,4.093-3.039L56.727,36.188a2.134,2.134,0,0,0,.2-1.621,2.081,2.081,0,0,0-1.023-1.216L48.745,29.5a2.741,2.741,0,0,1-1.228-1.418,2.377,2.377,0,0,1,.2-2.026l7.163-13.374a2.744,2.744,0,0,1,1.433-1.216,2.443,2.443,0,0,1,2.047.2L83.331,24.638a2.732,2.732,0,0,1,1.228,1.418,2.377,2.377,0,0,1-.2,2.026L72.69,49.967a2.637,2.637,0,0,1-3.479,1.013,2.583,2.583,0,0,1-1.023-3.445L78.623,27.881,58.364,17.141l-4.707,8.916,4.912,2.634a7.292,7.292,0,0,1,3.479,4.255,6.511,6.511,0,0,1-.614,5.471L49.973,59.694c-1.637,2.837-6.752,7.295-10.845,5.268L25.212,57.667a5.094,5.094,0,0,0-7.572,4.458A5.027,5.027,0,0,0,20.3,66.583l13.1,6.889H54.067l6.549-12.158A2.637,2.637,0,0,1,64.095,60.3a2.583,2.583,0,0,1,1.023,3.445L57.955,77.12a2.464,2.464,0,0,1-2.047,1.418" transform="translate(12.853 11.633)" fill="#4e8ae1"/>
        <path id="Trazado_1039433" data-name="Trazado 1039433" d="M44.265,48.463a11.246,11.246,0,0,1-4.5-1.013,7.351,7.351,0,0,1-2.047-1.418c-.2-.2-.409-.405-.614-.405a9.533,9.533,0,0,1-1.842-2.432c0-.2-.2-.405-.2-.608a11.528,11.528,0,0,1-.819-2.837V36.1c0-.405.2-.608.2-1.013,0-.2,0-.2.2-.405.2-.405.409-1.013.614-1.418,0-.2.2-.2.2-.405s.2-.2.2-.405.2-.2.2-.405a7.02,7.02,0,0,1,2.456-2.432c.2-.2.2-.2.409-.2a4.482,4.482,0,0,0,1.023-.608c.2,0,.2-.2.409-.2a1.24,1.24,0,0,1,.819-.2c.2,0,.2,0,.409-.2h3.684a13.087,13.087,0,0,1,3.682,1.216,10.294,10.294,0,0,1,5.321,8.916,9.624,9.624,0,0,1-9.822,10.132m-4.707-8.105c0,.2,0,.2.2.405a5.384,5.384,0,0,0,1.023,1.216l.2.2c.409.2.614.405,1.023.608a4.152,4.152,0,0,0,2.251.608,5.043,5.043,0,0,0,5.116-5.066,5.277,5.277,0,0,0-2.661-4.458,3.329,3.329,0,0,0-1.844-.608H42.423c-.207,0-.207,0-.409.2h-.2c-.2,0-.409.2-.614.2h-.2l-1.228,1.216v.608a.74.74,0,0,0-.2.608v.2c0,.2,0,.405-.2.405v1.418a3.1,3.1,0,0,0,.2,2.229" transform="translate(35.138 28.942)" fill="#4e8ae1"/>
        <path id="Trazado_1039434" data-name="Trazado 1039434" d="M15.265,24.732a9.038,9.038,0,0,1-9-8.916,9,9,0,0,1,18.008,0,9.04,9.04,0,0,1-9,8.916m0-12.563a3.85,3.85,0,1,0,3.888,3.85,3.745,3.745,0,0,0-3.888-3.85" transform="translate(6.427 7.082)" fill="#4e8ae1"/>
        <path id="Trazado_1039435" data-name="Trazado 1039435" d="M9,24.732a9.04,9.04,0,0,1-9-8.916,9.005,9.005,0,0,1,18.01,0,9.04,9.04,0,0,1-9,8.916M9,12.168a3.85,3.85,0,1,0,3.889,3.85A3.867,3.867,0,0,0,9,12.168" transform="translate(0 7.082)" fill="#4e8ae1"/>
      </g>
    </g>
  </g>
</svg>
