<svg id="Grupo_1177175" data-name="Grupo 1177175" xmlns="http://www.w3.org/2000/svg" xmlns:xlink="http://www.w3.org/1999/xlink" width="100.072" height="115.5" viewBox="0 0 100.072 115.5">
  <defs>
    <clipPath id="clip-path">
      <rect id="Rectángulo_454727" data-name="Rectángulo 454727" width="100.072" height="115.5" fill="none"/>
    </clipPath>
  </defs>
  <g id="Grupo_1177174" data-name="Grupo 1177174" clip-path="url(#clip-path)">
    <path id="Trazado_1039402" data-name="Trazado 1039402" d="M42.272,6.184a5.353,5.353,0,0,1-.614,2.432L39.2,13.073l-9-4.661,2.456-4.458a5.091,5.091,0,0,1,6.958-2.026,4.509,4.509,0,0,1,2.661,4.255" transform="translate(30.992 1.314)" fill="#fff"/>
    <path id="Trazado_1039403" data-name="Trazado 1039403" d="M14,14.482A6.344,6.344,0,1,1,7.657,8.2,6.345,6.345,0,0,1,14,14.482" transform="translate(1.348 8.416)" fill="#d3e2f6"/>
    <path id="Trazado_1039404" data-name="Trazado 1039404" d="M13.918,8.2a6.282,6.282,0,1,1-6.344,6.282A6.345,6.345,0,0,1,13.918,8.2" transform="translate(7.773 8.416)" fill="#d3e2f6"/>
    <path id="Trazado_1039405" data-name="Trazado 1039405" d="M10.786,14.5a6.282,6.282,0,1,1-6.342,6.282A6.345,6.345,0,0,1,10.786,14.5" transform="translate(4.561 14.882)" fill="#d3e2f6"/>
    <path id="Trazado_1039406" data-name="Trazado 1039406" d="M46.81,30.16a7.7,7.7,0,0,1-3.891,14.387,6.779,6.779,0,0,1-3.477-.811,3.663,3.663,0,0,1-1.435-1.013l-.409-.405a11.151,11.151,0,0,1-1.433-1.824.707.707,0,0,0-.2-.405c-.207-.608-.409-1.418-.616-2.026V35.428c0-.2.207-.405.207-.811v-.2c.2-.405.2-.608.409-1.013l.2-.2.207-.2.2-.2a7.869,7.869,0,0,1,1.842-1.824l.207-.2a1.544,1.544,0,0,1,.819-.405.2.2,0,0,0,.2-.2c.2,0,.411-.2.614-.2h3.07a3.934,3.934,0,0,1,3.481.2" transform="translate(36.277 30.427)" fill="#d3e2f6"/>
    <path id="Trazado_1039407" data-name="Trazado 1039407" d="M94.615,50.7V60.832H2.525V50.7h92.09Z" transform="translate(2.591 52.034)" fill="#d3e2f6"/>
    <path id="Trazado_1039408" data-name="Trazado 1039408" d="M75.4,56.574V58.4H8.887V56.574A13.427,13.427,0,0,1,22.392,43.2h39.5A13.428,13.428,0,0,1,75.4,56.574" transform="translate(9.121 44.337)" fill="#d3e2f6"/>
    <path id="Trazado_1039409" data-name="Trazado 1039409" d="M80.55,25.668,73.387,39.042l-4.5,8.511a6.737,6.737,0,0,0-2.661-.811h-3.07c-.2,0-.409.2-.614.2s-.2,0-.2.2c-.2.2-.614.2-.819.405l-.2.2a4,4,0,0,0-1.842,1.824l-.2.2-.2.2-.2.2c-.2.405-.409.608-.409,1.013v.2c0,.2-.2.405-.2.811v2.432a5.9,5.9,0,0,0,.614,2.026.705.705,0,0,0,.2.405A11.151,11.151,0,0,0,60.5,58.9l.409.405a6.219,6.219,0,0,0,1.433,1.013L56.607,70.45,54.356,74.5H31.641L17.929,67.208a7.593,7.593,0,0,1-4.093-6.687,7.882,7.882,0,0,1,.819-3.647,7.981,7.981,0,0,1,10.438-3.242l13.917,7.295c2.249,1.216,6.138-1.824,7.366-4.053L57.631,36a4.342,4.342,0,0,0-1.842-6.079l-7.163-3.85L55.789,12.7l11.254,5.876Z" transform="translate(14.2 13.034)" fill="#fff"/>
    <path id="Trazado_1039410" data-name="Trazado 1039410" d="M21.945,30.348,36.474,3.6l4.5,2.229,9,4.863,4.5,2.432L49.776,22.04,42.409,35.413,37.7,44.329l-6.956,2.229-9-4.863-2.047-6.889Z" transform="translate(20.212 3.695)" fill="#fff"/>
    <path id="Trazado_1039411" data-name="Trazado 1039411" d="M12.134,31.032a9.04,9.04,0,0,1-9-8.916,9,9,0,0,1,18.008,0,9.04,9.04,0,0,1-9,8.916m0-12.766a3.85,3.85,0,1,0,3.889,3.85,3.865,3.865,0,0,0-3.889-3.85" transform="translate(3.213 13.547)" fill="#4e8ae1"/>
    <path id="Trazado_1039412" data-name="Trazado 1039412" d="M32.057,50.288a2.619,2.619,0,0,1-1.228-.2l-9-4.661A2.732,2.732,0,0,1,20.6,44.007l-2.047-6.889a2.377,2.377,0,0,1,.2-2.026L35.536,3.683a2.744,2.744,0,0,1,1.433-1.216,2.443,2.443,0,0,1,2.047.2l4.5,2.432a2.584,2.584,0,0,1,1.025,3.445A2.64,2.64,0,0,1,41.059,9.56L38.81,8.344,23.666,36.51,25.1,41.373l7.163,3.85L37.173,43.8l4.3-8.105a2.634,2.634,0,0,1,3.477-1.013,2.586,2.586,0,0,1,1.025,3.445l-4.709,8.916a2.729,2.729,0,0,1-1.433,1.216l-6.956,2.026Z" transform="translate(18.899 2.396)" fill="#4e8ae1"/>
    <path id="Trazado_1039413" data-name="Trazado 1039413" d="M35.823,22.149a2.619,2.619,0,0,1-1.228-.2A2.583,2.583,0,0,1,33.572,18.5l3.684-6.687L34.8,10.6a2.585,2.585,0,0,1-1.023-3.445,2.637,2.637,0,0,1,3.479-1.013l4.5,2.432a2.732,2.732,0,0,1,1.228,1.418,2.377,2.377,0,0,1-.2,2.026l-4.707,8.916a2.836,2.836,0,0,1-2.251,1.216" transform="translate(34.166 6.016)" fill="#4e8ae1"/>
    <path id="Trazado_1039414" data-name="Trazado 1039414" d="M33.445,26.478a2.623,2.623,0,0,1-1.23-.2L20.959,20.4a2.585,2.585,0,0,1-1.021-3.445,2.634,2.634,0,0,1,3.477-1.013l11.256,5.876a2.58,2.58,0,0,1,1.023,3.445,2.832,2.832,0,0,1-2.249,1.216" transform="translate(20.173 16.074)" fill="#4e8ae1"/>
    <path id="Trazado_1039415" data-name="Trazado 1039415" d="M40.514,16.818a2.619,2.619,0,0,1-1.228-.2l-9-4.661a2.732,2.732,0,0,1-1.228-1.418,2.377,2.377,0,0,1,.2-2.026l2.456-4.458A7.856,7.856,0,0,1,38.467,0a12.053,12.053,0,0,1,3.684.811A7.758,7.758,0,0,1,46.244,7.5a11.681,11.681,0,0,1-.821,3.647L42.968,15.6a3.2,3.2,0,0,1-2.454,1.216M34.988,8.511l4.5,2.432,1.228-2.229a2.547,2.547,0,0,0,.2-1.216,2.494,2.494,0,0,0-1.433-2.229,2.619,2.619,0,0,0-1.228-.2,2.518,2.518,0,0,0-2.251,1.418Z" transform="translate(29.68)" fill="#4e8ae1"/>
    <path id="Trazado_1039416" data-name="Trazado 1039416" d="M48.556,44.318a2.619,2.619,0,0,1-1.228-.2L15.608,27.5a2.583,2.583,0,0,1-1.023-3.445,2.637,2.637,0,0,1,3.479-1.013l31.72,16.616A2.583,2.583,0,0,1,50.807,43.1a2.356,2.356,0,0,1-2.251,1.216" transform="translate(14.679 23.361)" fill="#4e8ae1"/>
    <path id="Trazado_1039417" data-name="Trazado 1039417" d="M95.963,64.8H3.873a2.7,2.7,0,0,1-2.661-2.634V52.034A2.7,2.7,0,0,1,3.873,49.4H16.766a2.634,2.634,0,1,1,0,5.268H6.533v5.066H93.507V54.668H83.276a2.634,2.634,0,1,1,0-5.268H96.167a2.7,2.7,0,0,1,2.661,2.634V62.166A3.044,3.044,0,0,1,95.963,64.8" transform="translate(1.244 50.7)" fill="#4e8ae1"/>
    <path id="Trazado_1039418" data-name="Trazado 1039418" d="M76.744,62.263H10.235a2.7,2.7,0,0,1-2.661-2.634V57.805A15.905,15.905,0,0,1,23.537,42H37.861a2.669,2.669,0,0,1,2.661,2.432,2.7,2.7,0,0,1-2.661,2.634H23.537A10.758,10.758,0,0,0,12.69,57.2H74.084A10.9,10.9,0,0,0,63.237,47.066H60.986a2.7,2.7,0,0,1-2.659-2.634A2.527,2.527,0,0,1,60.986,42h2.251A15.905,15.905,0,0,1,79.2,57.805v1.824a2.665,2.665,0,0,1-2.456,2.634" transform="translate(7.773 43.105)" fill="#4e8ae1"/>
    <path id="Trazado_1039419" data-name="Trazado 1039419" d="M41.157,33.176h-.819a2.44,2.44,0,1,1,.409-4.863h.614a2.527,2.527,0,0,1,2.251,2.837c0,1.216-1.023,2.026-2.456,2.026" transform="translate(39.063 29.032)" fill="#4e8ae1"/>
    <path id="Trazado_1039420" data-name="Trazado 1039420" d="M40.137,33.163a2.448,2.448,0,0,1-2.456-2.229A2.366,2.366,0,0,1,39.933,28.3h.409A2.523,2.523,0,0,1,42.8,30.934a2.353,2.353,0,0,1-2.456,2.432.2.2,0,0,0-.2-.2" transform="translate(38.65 29.045)" fill="#4e8ae1"/>
    <path id="Trazado_1039421" data-name="Trazado 1039421" d="M39.837,33.277a2.432,2.432,0,0,1-2.456-2.229,2.527,2.527,0,0,1,2.047-2.837h.614a2.7,2.7,0,0,1,2.865,2.229,2.527,2.527,0,0,1-2.251,2.837h-.819Z" transform="translate(38.338 28.931)" fill="#4e8ae1"/>
    <path id="Trazado_1039422" data-name="Trazado 1039422" d="M39.472,33.276a2.864,2.864,0,0,1-2.456-1.824,2.322,2.322,0,0,1,1.842-3.039h1.023a2.552,2.552,0,1,1,.614,5.066h-.614c0-.2-.2-.2-.409-.2" transform="translate(37.882 29.134)" fill="#4e8ae1"/>
    <path id="Trazado_1039423" data-name="Trazado 1039423" d="M37.34,36.253a2.98,2.98,0,0,1-1.433-.405,2.373,2.373,0,0,1-.614-3.445,7.02,7.02,0,0,1,2.456-2.432c.2,0,.2-.2.409-.2l1.228-.608a.2.2,0,0,0,.2-.2,1.24,1.24,0,0,1,.819-.2c.2,0,.2,0,.409-.2a2.425,2.425,0,0,1,3.07,1.824,2.4,2.4,0,0,1-1.842,3.039h-.2c-.2,0-.2,0-.409.2h-.2c-.2.2-.409.2-.614.405a.2.2,0,0,0-.2.2l-1.228,1.216a2.256,2.256,0,0,1-1.842.811" transform="translate(35.718 29.197)" fill="#4e8ae1"/>
    <path id="Trazado_1039424" data-name="Trazado 1039424" d="M37.31,35.109a3.823,3.823,0,0,1-1.433-.405,2.4,2.4,0,0,1-.819-3.445c0-.2.2-.2.2-.405a2.426,2.426,0,0,1,3.479-.608,2.373,2.373,0,0,1,.614,3.445v.2a2.254,2.254,0,0,1-2.047,1.216" transform="translate(35.544 30.543)" fill="#4e8ae1"/>
    <path id="Trazado_1039425" data-name="Trazado 1039425" d="M37.034,35.537a2.619,2.619,0,0,1-1.228-.2,2.583,2.583,0,0,1-1.023-3.445c0-.2.2-.2.2-.405s.2-.2.2-.405a2.672,2.672,0,0,1,3.479-.811,2.613,2.613,0,0,1,.819,3.445v.2a.2.2,0,0,1-.2.2,2.214,2.214,0,0,1-2.251,1.418" transform="translate(35.409 30.724)" fill="#4e8ae1"/>
    <path id="Trazado_1039426" data-name="Trazado 1039426" d="M36.605,37.389h-.2a2.527,2.527,0,0,1-2.251-2.837v-.811c0-.405.2-.608.2-1.013,0-.2,0-.405.2-.405A2.571,2.571,0,0,1,37.833,30.9a2.529,2.529,0,0,1,1.433,3.242c0,.2,0,.2-.2.405v.405a2.247,2.247,0,0,1-2.456,2.432" transform="translate(35.021 31.506)" fill="#4e8ae1"/>
    <path id="Trazado_1039427" data-name="Trazado 1039427" d="M36.7,36.884h0a2.7,2.7,0,0,1-2.661-2.634v-.608A2.5,2.5,0,0,1,36.9,31.616a2.383,2.383,0,0,1,2.047,2.837A2.1,2.1,0,0,1,36.7,36.884" transform="translate(34.931 32.416)" fill="#4e8ae1"/>
    <path id="Trazado_1039428" data-name="Trazado 1039428" d="M36.7,37.274a2.7,2.7,0,0,1-2.661-2.634v-.608a2.56,2.56,0,0,1,5.116.2v.2A2.382,2.382,0,0,1,36.7,37.274" transform="translate(34.931 32.432)" fill="#4e8ae1"/>
    <path id="Trazado_1039429" data-name="Trazado 1039429" d="M36.592,37.771a2.606,2.606,0,0,1-2.456-2.229v-.608a2.56,2.56,0,0,1,5.116-.2v.2A2.527,2.527,0,0,1,37,37.771Z" transform="translate(35.034 33.15)" fill="#4e8ae1"/>
    <path id="Trazado_1039430" data-name="Trazado 1039430" d="M37.117,39.092a2.391,2.391,0,0,1-2.251-1.418.74.74,0,0,1-.2-.608,2.662,2.662,0,0,1,1.228-3.445,2.714,2.714,0,0,1,3.479,1.216c0,.2.2.2.2.405a2.583,2.583,0,0,1-1.023,3.445,2.223,2.223,0,0,1-1.433.405" transform="translate(35.326 34.261)" fill="#4e8ae1"/>
    <path id="Trazado_1039431" data-name="Trazado 1039431" d="M38.19,40.045a2.337,2.337,0,0,1-1.637-.608c-.2-.2-.409-.2-.614-.405a2.55,2.55,0,0,1,0-3.647,2.612,2.612,0,0,1,3.684,0l.2.2a2.535,2.535,0,0,1,.2,3.647,2,2,0,0,1-1.842.811" transform="translate(36.097 35.536)" fill="#4e8ae1"/>
    <path id="Trazado_1039432" data-name="Trazado 1039432" d="M55.908,78.538H32.989a2.619,2.619,0,0,1-1.228-.2L18.049,71.041a10.5,10.5,0,0,1-5.526-8.916,9.321,9.321,0,0,1,1.23-4.661A10.425,10.425,0,0,1,27.668,53.21L41.584,60.5c.817,0,3.272-1.621,4.093-3.039L56.727,36.188a2.134,2.134,0,0,0,.2-1.621,2.081,2.081,0,0,0-1.023-1.216L48.745,29.5a2.741,2.741,0,0,1-1.228-1.418,2.377,2.377,0,0,1,.2-2.026l7.163-13.374a2.744,2.744,0,0,1,1.433-1.216,2.443,2.443,0,0,1,2.047.2L83.331,24.638a2.732,2.732,0,0,1,1.228,1.418,2.377,2.377,0,0,1-.2,2.026L72.69,49.967a2.637,2.637,0,0,1-3.479,1.013,2.583,2.583,0,0,1-1.023-3.445L78.623,27.881,58.364,17.141l-4.707,8.916,4.912,2.634a7.292,7.292,0,0,1,3.479,4.255,6.511,6.511,0,0,1-.614,5.471L49.973,59.694c-1.637,2.837-6.752,7.295-10.845,5.268L25.212,57.667a5.094,5.094,0,0,0-7.572,4.458A5.027,5.027,0,0,0,20.3,66.583l13.1,6.889H54.067l6.549-12.158A2.637,2.637,0,0,1,64.095,60.3a2.583,2.583,0,0,1,1.023,3.445L57.955,77.12a2.464,2.464,0,0,1-2.047,1.418" transform="translate(12.853 11.633)" fill="#4e8ae1"/>
    <path id="Trazado_1039433" data-name="Trazado 1039433" d="M44.265,48.463a11.246,11.246,0,0,1-4.5-1.013,7.351,7.351,0,0,1-2.047-1.418c-.2-.2-.409-.405-.614-.405a9.533,9.533,0,0,1-1.842-2.432c0-.2-.2-.405-.2-.608a11.528,11.528,0,0,1-.819-2.837V36.1c0-.405.2-.608.2-1.013,0-.2,0-.2.2-.405.2-.405.409-1.013.614-1.418,0-.2.2-.2.2-.405s.2-.2.2-.405.2-.2.2-.405a7.02,7.02,0,0,1,2.456-2.432c.2-.2.2-.2.409-.2a4.482,4.482,0,0,0,1.023-.608c.2,0,.2-.2.409-.2a1.24,1.24,0,0,1,.819-.2c.2,0,.2,0,.409-.2h3.684a13.087,13.087,0,0,1,3.682,1.216,10.294,10.294,0,0,1,5.321,8.916,9.624,9.624,0,0,1-9.822,10.132m-4.707-8.105c0,.2,0,.2.2.405a5.384,5.384,0,0,0,1.023,1.216l.2.2c.409.2.614.405,1.023.608a4.152,4.152,0,0,0,2.251.608,5.043,5.043,0,0,0,5.116-5.066,5.277,5.277,0,0,0-2.661-4.458,3.329,3.329,0,0,0-1.844-.608H42.423c-.207,0-.207,0-.409.2h-.2c-.2,0-.409.2-.614.2h-.2l-1.228,1.216v.608a.74.74,0,0,0-.2.608v.2c0,.2,0,.405-.2.405v1.418a3.1,3.1,0,0,0,.2,2.229" transform="translate(35.138 28.942)" fill="#4e8ae1"/>
    <path id="Trazado_1039434" data-name="Trazado 1039434" d="M15.265,24.732a9.038,9.038,0,0,1-9-8.916,9,9,0,0,1,18.008,0,9.04,9.04,0,0,1-9,8.916m0-12.563a3.85,3.85,0,1,0,3.888,3.85,3.745,3.745,0,0,0-3.888-3.85" transform="translate(6.427 7.082)" fill="#4e8ae1"/>
    <path id="Trazado_1039435" data-name="Trazado 1039435" d="M9,24.732a9.04,9.04,0,0,1-9-8.916,9.005,9.005,0,0,1,18.01,0,9.04,9.04,0,0,1-9,8.916M9,12.168a3.85,3.85,0,1,0,3.889,3.85A3.867,3.867,0,0,0,9,12.168" transform="translate(0 7.082)" fill="#4e8ae1"/>
  </g>
</svg>
