<svg xmlns="http://www.w3.org/2000/svg" width="30" height="75.028" viewBox="0 0 30 75.028">
  <g id="Grupo_1206732" data-name="Grupo 1206732" transform="translate(30) rotate(90)">
    <g id="Grupo_78414" data-name="Grupo 78414" transform="translate(0 0)">
      <path id="Trazado_114078" data-name="Trazado 114078" d="M64.727,0c-2.951,0-4.408,2.388-5.578,4.309-1.185,1.943-1.988,3.133-3.5,3.133s-2.312-1.191-3.5-3.133C50.984,2.388,49.527,0,46.578,0S42.17,2.388,41,4.309c-1.184,1.943-1.987,3.133-3.5,3.133s-2.311-1.191-3.5-3.133C32.838,2.388,31.381,0,28.431,0s-4.406,2.39-5.575,4.31c-1.184,1.941-1.985,3.132-3.494,3.132s-2.31-1.191-3.494-3.132C14.7,2.388,13.243,0,10.293,0S5.888,2.388,4.718,4.31C3.534,6.251,2.733,7.442,1.224,7.442a1.24,1.24,0,0,0,0,2.48c2.948,0,4.405-2.388,5.575-4.309C7.982,3.671,8.785,2.48,10.293,2.48s2.31,1.191,3.494,3.133c1.17,1.92,2.627,4.309,5.575,4.309s4.405-2.388,5.574-4.309c1.184-1.943,1.985-3.133,3.5-3.133s2.311,1.191,3.5,3.133c1.17,1.92,2.627,4.309,5.577,4.309s4.406-2.388,5.578-4.309c1.183-1.943,1.986-3.133,3.5-3.133s2.311,1.191,3.5,3.133c1.169,1.92,2.627,4.309,5.577,4.309s4.409-2.388,5.579-4.309c1.185-1.943,1.988-3.133,3.5-3.133s2.314,1.191,3.5,3.133c1.17,1.92,2.628,4.309,5.579,4.309a1.24,1.24,0,0,0,0-2.48c-1.511,0-2.314-1.191-3.5-3.133C69.136,2.388,67.679,0,64.727,0Z" transform="translate(0 20.078)" fill="#fdc9a6"/>
      <path id="Trazado_114079" data-name="Trazado 114079" d="M64.727,0c-2.951,0-4.408,2.39-5.578,4.309-1.185,1.944-1.988,3.135-3.5,3.135s-2.312-1.191-3.5-3.133C50.984,2.39,49.527,0,46.578,0S42.17,2.39,41,4.31c-1.184,1.943-1.987,3.133-3.5,3.133s-2.311-1.191-3.5-3.133C32.838,2.39,31.381,0,28.431,0s-4.406,2.391-5.575,4.31c-1.184,1.943-1.985,3.133-3.494,3.133s-2.31-1.191-3.494-3.133C14.7,2.39,13.243,0,10.293,0S5.888,2.39,4.718,4.31C3.534,6.253,2.733,7.443,1.224,7.443a1.24,1.24,0,0,0,0,2.48c2.948,0,4.405-2.39,5.575-4.31,1.183-1.941,1.985-3.132,3.494-3.132s2.31,1.191,3.494,3.132c1.17,1.92,2.627,4.31,5.575,4.31s4.405-2.39,5.574-4.31c1.184-1.941,1.985-3.132,3.5-3.132s2.311,1.191,3.5,3.132c1.17,1.92,2.627,4.31,5.577,4.31s4.406-2.39,5.578-4.31c1.183-1.941,1.986-3.132,3.5-3.132s2.311,1.191,3.5,3.132c1.169,1.92,2.627,4.31,5.577,4.31s4.409-2.39,5.579-4.31c1.185-1.941,1.988-3.132,3.5-3.132s2.314,1.191,3.5,3.132c1.17,1.92,2.628,4.31,5.579,4.31a1.24,1.24,0,0,0,0-2.48c-1.511,0-2.314-1.191-3.5-3.133C69.136,2.39,67.679,0,64.727,0Z" transform="translate(0 10.038)" fill="#fdc9a6"/>
      <path id="Trazado_114080" data-name="Trazado 114080" d="M64.727,0c-2.951,0-4.408,2.388-5.578,4.309-1.185,1.943-1.988,3.133-3.5,3.133s-2.312-1.191-3.5-3.133C50.984,2.388,49.527,0,46.578,0S42.17,2.388,41,4.309c-1.184,1.943-1.987,3.133-3.5,3.133s-2.311-1.191-3.5-3.133C32.838,2.388,31.381,0,28.431,0s-4.406,2.388-5.575,4.309c-1.184,1.943-1.985,3.133-3.494,3.133s-2.31-1.191-3.494-3.133C14.7,2.388,13.243,0,10.293,0S5.888,2.388,4.718,4.309C3.534,6.251,2.733,7.442,1.224,7.442a1.24,1.24,0,0,0,0,2.48c2.948,0,4.405-2.39,5.575-4.31C7.982,3.671,8.785,2.48,10.293,2.48s2.31,1.191,3.494,3.132c1.17,1.92,2.627,4.31,5.575,4.31s4.405-2.39,5.574-4.309c1.184-1.943,1.985-3.133,3.5-3.133s2.311,1.191,3.5,3.133C33.1,7.532,34.553,9.922,37.5,9.922s4.406-2.39,5.578-4.309c1.183-1.943,1.986-3.133,3.5-3.133s2.311,1.191,3.5,3.133c1.169,1.919,2.627,4.309,5.577,4.309s4.409-2.39,5.579-4.309c1.185-1.943,1.988-3.133,3.5-3.133s2.314,1.191,3.5,3.133c1.17,1.919,2.628,4.309,5.579,4.309a1.24,1.24,0,0,0,0-2.48c-1.511,0-2.314-1.191-3.5-3.133C69.136,2.388,67.679,0,64.727,0Z" transform="translate(0 0)" fill="#fdc9a6"/>
    </g>
  </g>
</svg>
